<svg xmlns="http://www.w3.org/2000/svg" xmlns:xlink="http://www.w3.org/1999/xlink" width="840" height="602.75"><rect width="840" height="602.75" rx="5" ry="5" class="a"/><svg y="0%" x="0%"><circle cx="20" cy="20" r="6" fill="#ff5f58"/><circle cx="40" cy="20" r="6" fill="#ffbd2e"/><circle cx="60" cy="20" r="6" fill="#18c132"/></svg><svg height="542.75" viewBox="0 0 80 54.275" width="800" x="15" xmlns="http://www.w3.org/2000/svg" xmlns:xlink="http://www.w3.org/1999/xlink" y="50"><style>@keyframes k{0%{transform:translateX(0)}.1%{transform:translateX(-80px)}8.8%{transform:translateX(-160px)}9.6%{transform:translateX(-240px)}10.4%{transform:translateX(-320px)}11.2%{transform:translateX(-400px)}12.8%{transform:translateX(-480px)}13.6%{transform:translateX(-560px)}14.4%{transform:translateX(-640px)}15.2%{transform:translateX(-720px)}16.8%{transform:translateX(-800px)}17.6%{transform:translateX(-880px)}18.4%{transform:translateX(-960px)}19.2%{transform:translateX(-1040px)}20%{transform:translateX(-1120px)}22.4%{transform:translateX(-1200px)}23.2%{transform:translateX(-1280px)}24%{transform:translateX(-1360px)}24.8%{transform:translateX(-1440px)}26.4%{transform:translateX(-1520px)}28%{transform:translateX(-1600px)}29.6%{transform:translateX(-1680px)}30.4%{transform:translateX(-1760px)}32.8%{transform:translateX(-1840px)}33.6%{transform:translateX(-1920px)}34.4%{transform:translateX(-2000px)}35.2%{transform:translateX(-2080px)}36.8%{transform:translateX(-2160px)}37.6%{transform:translateX(-2240px)}38.4%{transform:translateX(-2320px)}39.2%{transform:translateX(-2400px)}40.8%{transform:translateX(-2480px)}41.6%{transform:translateX(-2560px)}42.4%{transform:translateX(-2640px)}43.2%{transform:translateX(-2720px)}44%{transform:translateX(-2800px)}44.8%{transform:translateX(-2880px)}45.6%{transform:translateX(-2960px)}47.2%{transform:translateX(-3040px)}48%{transform:translateX(-3120px)}48.8%{transform:translateX(-3200px)}49.6%{transform:translateX(-3280px)}50.4%{transform:translateX(-3360px)}51.2%{transform:translateX(-3440px)}52%{transform:translateX(-3520px)}52.8%{transform:translateX(-3600px)}53.6%{transform:translateX(-3680px)}54.4%{transform:translateX(-3760px)}55.2%{transform:translateX(-3840px)}56%{transform:translateX(-3920px)}56.8%{transform:translateX(-4000px)}60%{transform:translateX(-4080px)}60.8%{transform:translateX(-4160px)}64.8%{transform:translateX(-4240px)}65.6%{transform:translateX(-4320px)}66.4%{transform:translateX(-4400px)}67.2%{transform:translateX(-4480px)}68%{transform:translateX(-4560px)}68.8%{transform:translateX(-4640px)}69.6%{transform:translateX(-4720px)}70.4%{transform:translateX(-4800px)}71.2%{transform:translateX(-4880px)}72%{transform:translateX(-4960px)}72.8%{transform:translateX(-5040px)}73.6%{transform:translateX(-5120px)}74.4%{transform:translateX(-5200px)}75.2%{transform:translateX(-5280px)}76%{transform:translateX(-5360px)}76.8%{transform:translateX(-5440px)}77.6%{transform:translateX(-5520px)}78.4%{transform:translateX(-5600px)}79.2%{transform:translateX(-5680px)}80%{transform:translateX(-5760px)}to{transform:translateX(-5840px)}}.a{fill:#282d35}.f{fill:#b9c0cb}.g,.h{fill:#a8cc8c;font-weight:700}.h{fill:#dbab79}</style><g font-size="1.67" font-family="Monaco,Consolas,Menlo,'Bitstream Vera Sans Mono','Powerline Symbols',monospace"><defs><symbol id="1"><text y="1.67" class="f">$</text></symbol><symbol id="2"><text y="1.67" class="f">$</text><text x="2.004" y="1.67" class="f">h</text></symbol><symbol id="3"><text y="1.67" class="f">$</text><text x="2.004" y="1.67" class="f">ha</text></symbol><symbol id="4"><text y="1.67" class="f">$</text><text x="2.004" y="1.67" class="f">has</text></symbol><symbol id="5"><text y="1.67" class="f">$</text><text x="2.004" y="1.67" class="f">has</text><text x="6.012" y="1.67" class="f">git</text></symbol><symbol id="6"><text y="1.67" class="f">$</text><text x="2.004" y="1.67" class="f">has</text><text x="6.012" y="1.67" class="f">git</text><text x="10.02" y="1.67" class="f">node</text></symbol><symbol id="7"><text y="1.67" class="f">$</text><text x="2.004" y="1.67" class="f">has</text><text x="6.012" y="1.67" class="f">git</text><text x="10.02" y="1.67" class="f">node</text><text x="15.03" y="1.67" class="f">npm</text></symbol><symbol id="8"><text y="1.67" class="g">✔</text><text x="2.004" y="1.67" class="f">git</text><text x="6.012" y="1.67" class="h">2.19.1</text></symbol><symbol id="9"><text y="1.67" class="g">✔</text><text x="2.004" y="1.67" class="f">node</text><text x="7.014" y="1.67" class="h">10.7.0</text></symbol><symbol id="10"><text y="1.67" class="g">✔</text><text x="2.004" y="1.67" class="f">npm</text><text x="6.012" y="1.67" class="h">6.4.1</text></symbol><symbol id="11"><text y="1.67" class="f">$</text><text x="2.004" y="1.67" class="f">has</text><text x="6.012" y="1.67" class="f">java</text></symbol><symbol id="12"><text y="1.67" class="f">$</text><text x="2.004" y="1.67" class="f">has</text><text x="6.012" y="1.67" class="f">java</text><text x="11.022" y="1.67" class="f">perl6</text></symbol><symbol id="13"><text y="1.67" class="f">$</text><text x="2.004" y="1.67" class="f">has</text><text x="6.012" y="1.67" class="f">java</text><text x="11.022" y="1.67" class="f">perl6</text><text x="17.034" y="1.67" class="f">ruby</text></symbol><symbol id="14"><text y="1.67" class="f">$</text><text x="2.004" y="1.67" class="f">has</text><text x="6.012" y="1.67" class="f">java</text><text x="11.022" y="1.67" class="f">perl6</text><text x="17.034" y="1.67" class="f">ruby</text><text x="22.044" y="1.67" class="f">go</text></symbol><symbol id="15"><text y="1.67" class="g">✔</text><text x="2.004" y="1.67" class="f">java</text><text x="7.014" y="1.67" class="h">11.0.1</text></symbol><symbol id="16"><text y="1.67" fill="#e88388" font-weight="700">✘</text><text x="2.004" y="1.67" class="f">perl6</text></symbol><symbol id="17"><text y="1.67" class="g">✔</text><text x="2.004" y="1.67" class="f">ruby</text><text x="7.014" y="1.67" class="h">2.3.1</text></symbol><symbol id="18"><text y="1.67" class="g">✔</text><text x="2.004" y="1.67" class="f">go</text><text x="5.01" y="1.67" class="h">1.10.1</text></symbol><symbol id="19"><text y="1.67" class="f">$</text><text x="2.004" y="1.67" class="f">curl</text><text x="7.014" y="1.67" class="f">-sL</text><text x="11.022" y="1.67" class="f">https://git.io/_has</text><text x="31.062" y="1.67" class="f">|</text><text x="33.066" y="1.67" class="f">bash</text><text x="38.076" y="1.67" class="f">-s</text></symbol><symbol id="20"><text y="1.67" class="f">$</text><text x="2.004" y="1.67" class="f">curl</text><text x="7.014" y="1.67" class="f">-sL</text><text x="11.022" y="1.67" class="f">https://git.io/_has</text><text x="31.062" y="1.67" class="f">|</text><text x="33.066" y="1.67" class="f">bash</text><text x="38.076" y="1.67" class="f">-s</text><text x="41.082" y="1.67" class="f">brew</text></symbol><symbol id="21"><text y="1.67" class="f">$</text><text x="2.004" y="1.67" class="f">curl</text><text x="7.014" y="1.67" class="f">-sL</text><text x="11.022" y="1.67" class="f">https://git.io/_has</text><text x="31.062" y="1.67" class="f">|</text><text x="33.066" y="1.67" class="f">bash</text><text x="38.076" y="1.67" class="f">-s</text><text x="41.082" y="1.67" class="f">brew</text><text x="46.092" y="1.67" class="f">vim</text></symbol><symbol id="22"><text y="1.67" class="f">$</text><text x="2.004" y="1.67" class="f">curl</text><text x="7.014" y="1.67" class="f">-sL</text><text x="11.022" y="1.67" class="f">https://git.io/_has</text><text x="31.062" y="1.67" class="f">|</text><text x="33.066" y="1.67" class="f">bash</text><text x="38.076" y="1.67" class="f">-s</text><text x="41.082" y="1.67" class="f">brew</text><text x="46.092" y="1.67" class="f">vim</text><text x="50.1" y="1.67" class="f">emacs</text></symbol><symbol id="23"><text y="1.67" class="g">✔</text><text x="2.004" y="1.67" class="f">brew</text><text x="7.014" y="1.67" class="h">1.8.2</text></symbol><symbol id="24"><text y="1.67" class="g">✔</text><text x="2.004" y="1.67" class="f">vim</text><text x="6.012" y="1.67" class="h">8.0</text></symbol><symbol id="25"><text y="1.67" class="g">✔</text><text x="2.004" y="1.67" class="f">emacs</text><text x="8.016" y="1.67" class="h">22.1.1</text></symbol><symbol id="a"><path fill="transparent" d="M0 0h80v25H0z"/></symbol></defs><path class="a" d="M0 0h80v54.275H0z"/><g style="animation-duration:12.5s;animation-iteration-count:infinite;animation-name:k;animation-timing-function:steps(1,end)"><svg width="5920"><svg><use xlink:href="#a"/></svg><svg x="80"><use xlink:href="#a"/><use xlink:href="#1" y="2.171"/></svg><svg x="160"><use xlink:href="#a"/><use xlink:href="#2" y="2.171"/></svg><svg x="240"><use xlink:href="#a"/><use xlink:href="#3" y="2.171"/></svg><svg x="320"><use xlink:href="#a"/><use xlink:href="#4" y="2.171"/></svg><svg x="400"><use xlink:href="#a"/><use xlink:href="#4" y="2.171"/></svg><svg x="480"><use xlink:href="#a"/><text y="3.841" class="f">$</text><text x="2.004" y="3.841" class="f">has</text><text x="6.012" y="3.841" class="f">g</text></svg><svg x="560"><use xlink:href="#a"/><text y="3.841" class="f">$</text><text x="2.004" y="3.841" class="f">has</text><text x="6.012" y="3.841" class="f">gi</text></svg><svg x="640"><use xlink:href="#a"/><use xlink:href="#5" y="2.171"/></svg><svg x="720"><use xlink:href="#a"/><use xlink:href="#5" y="2.171"/></svg><svg x="800"><use xlink:href="#a"/><text y="3.841" class="f">$</text><text x="2.004" y="3.841" class="f">has</text><text x="6.012" y="3.841" class="f">git</text><text x="10.02" y="3.841" class="f">n</text></svg><svg x="880"><use xlink:href="#a"/><text y="3.841" class="f">$</text><text x="2.004" y="3.841" class="f">has</text><text x="6.012" y="3.841" class="f">git</text><text x="10.02" y="3.841" class="f">no</text></svg><svg x="960"><use xlink:href="#a"/><text y="3.841" class="f">$</text><text x="2.004" y="3.841" class="f">has</text><text x="6.012" y="3.841" class="f">git</text><text x="10.02" y="3.841" class="f">nod</text></svg><svg x="1040"><use xlink:href="#a"/><use xlink:href="#6" y="2.171"/></svg><svg x="1120"><use xlink:href="#a"/><use xlink:href="#6" y="2.171"/></svg><svg x="1200"><use xlink:href="#a"/><text y="3.841" class="f">$</text><text x="2.004" y="3.841" class="f">has</text><text x="6.012" y="3.841" class="f">git</text><text x="10.02" y="3.841" class="f">node</text><text x="15.03" y="3.841" class="f">n</text></svg><svg x="1280"><use xlink:href="#a"/><text y="3.841" class="f">$</text><text x="2.004" y="3.841" class="f">has</text><text x="6.012" y="3.841" class="f">git</text><text x="10.02" y="3.841" class="f">node</text><text x="15.03" y="3.841" class="f">np</text></svg><svg x="1360"><use xlink:href="#a"/><use xlink:href="#7" y="2.171"/></svg><svg x="1440"><use xlink:href="#a"/><use xlink:href="#7" y="2.171"/></svg><svg x="1520"><use xlink:href="#a"/><use xlink:href="#7" y="2.171"/><use xlink:href="#8" y="4.342"/></svg><svg x="1600"><use xlink:href="#a"/><use xlink:href="#7" y="2.171"/><use xlink:href="#8" y="4.342"/><use xlink:href="#9" y="6.513"/></svg><svg x="1680"><use xlink:href="#a"/><use xlink:href="#7" y="2.171"/><use xlink:href="#8" y="4.342"/><use xlink:href="#9" y="6.513"/><use xlink:href="#10" y="8.684"/></svg><svg x="1760"><use xlink:href="#a"/><use xlink:href="#7" y="2.171"/><use xlink:href="#8" y="4.342"/><use xlink:href="#9" y="6.513"/><use xlink:href="#10" y="8.684"/><use xlink:href="#1" y="13.026"/></svg><svg x="1840"><use xlink:href="#a"/><use xlink:href="#7" y="2.171"/><use xlink:href="#8" y="4.342"/><use xlink:href="#9" y="6.513"/><use xlink:href="#10" y="8.684"/><use xlink:href="#2" y="13.026"/></svg><svg x="1920"><use xlink:href="#a"/><use xlink:href="#7" y="2.171"/><use xlink:href="#8" y="4.342"/><use xlink:href="#9" y="6.513"/><use xlink:href="#10" y="8.684"/><use xlink:href="#3" y="13.026"/></svg><svg x="2000"><use xlink:href="#a"/><use xlink:href="#7" y="2.171"/><use xlink:href="#8" y="4.342"/><use xlink:href="#9" y="6.513"/><use xlink:href="#10" y="8.684"/><use xlink:href="#4" y="13.026"/></svg><svg x="2080"><use xlink:href="#a"/><use xlink:href="#7" y="2.171"/><use xlink:href="#8" y="4.342"/><use xlink:href="#9" y="6.513"/><use xlink:href="#10" y="8.684"/><use xlink:href="#4" y="13.026"/></svg><svg x="2160"><use xlink:href="#a"/><use xlink:href="#7" y="2.171"/><use xlink:href="#8" y="4.342"/><use xlink:href="#9" y="6.513"/><use xlink:href="#10" y="8.684"/><text y="14.696" class="f">$</text><text x="2.004" y="14.696" class="f">has</text><text x="6.012" y="14.696" class="f">j</text></svg><svg x="2240"><use xlink:href="#a"/><use xlink:href="#7" y="2.171"/><use xlink:href="#8" y="4.342"/><use xlink:href="#9" y="6.513"/><use xlink:href="#10" y="8.684"/><text y="14.696" class="f">$</text><text x="2.004" y="14.696" class="f">has</text><text x="6.012" y="14.696" class="f">ja</text></svg><svg x="2320"><use xlink:href="#a"/><use xlink:href="#7" y="2.171"/><use xlink:href="#8" y="4.342"/><use xlink:href="#9" y="6.513"/><use xlink:href="#10" y="8.684"/><text y="14.696" class="f">$</text><text x="2.004" y="14.696" class="f">has</text><text x="6.012" y="14.696" class="f">jav</text></svg><svg x="2400"><use xlink:href="#a"/><use xlink:href="#7" y="2.171"/><use xlink:href="#8" y="4.342"/><use xlink:href="#9" y="6.513"/><use xlink:href="#10" y="8.684"/><use xlink:href="#11" y="13.026"/></svg><svg x="2480"><use xlink:href="#a"/><use xlink:href="#7" y="2.171"/><use xlink:href="#8" y="4.342"/><use xlink:href="#9" y="6.513"/><use xlink:href="#10" y="8.684"/><use xlink:href="#11" y="13.026"/></svg><svg x="2560"><use xlink:href="#a"/><use xlink:href="#7" y="2.171"/><use xlink:href="#8" y="4.342"/><use xlink:href="#9" y="6.513"/><use xlink:href="#10" y="8.684"/><text y="14.696" class="f">$</text><text x="2.004" y="14.696" class="f">has</text><text x="6.012" y="14.696" class="f">java</text><text x="11.022" y="14.696" class="f">p</text></svg><svg x="2640"><use xlink:href="#a"/><use xlink:href="#7" y="2.171"/><use xlink:href="#8" y="4.342"/><use xlink:href="#9" y="6.513"/><use xlink:href="#10" y="8.684"/><text y="14.696" class="f">$</text><text x="2.004" y="14.696" class="f">has</text><text x="6.012" y="14.696" class="f">java</text><text x="11.022" y="14.696" class="f">pe</text></svg><svg x="2720"><use xlink:href="#a"/><use xlink:href="#7" y="2.171"/><use xlink:href="#8" y="4.342"/><use xlink:href="#9" y="6.513"/><use xlink:href="#10" y="8.684"/><text y="14.696" class="f">$</text><text x="2.004" y="14.696" class="f">has</text><text x="6.012" y="14.696" class="f">java</text><text x="11.022" y="14.696" class="f">per</text></svg><svg x="2800"><use xlink:href="#a"/><use xlink:href="#7" y="2.171"/><use xlink:href="#8" y="4.342"/><use xlink:href="#9" y="6.513"/><use xlink:href="#10" y="8.684"/><text y="14.696" class="f">$</text><text x="2.004" y="14.696" class="f">has</text><text x="6.012" y="14.696" class="f">java</text><text x="11.022" y="14.696" class="f">perl</text></svg><svg x="2880"><use xlink:href="#a"/><use xlink:href="#7" y="2.171"/><use xlink:href="#8" y="4.342"/><use xlink:href="#9" y="6.513"/><use xlink:href="#10" y="8.684"/><use xlink:href="#12" y="13.026"/></svg><svg x="2960"><use xlink:href="#a"/><use xlink:href="#7" y="2.171"/><use xlink:href="#8" y="4.342"/><use xlink:href="#9" y="6.513"/><use xlink:href="#10" y="8.684"/><use xlink:href="#12" y="13.026"/></svg><svg x="3040"><use xlink:href="#a"/><use xlink:href="#7" y="2.171"/><use xlink:href="#8" y="4.342"/><use xlink:href="#9" y="6.513"/><use xlink:href="#10" y="8.684"/><text y="14.696" class="f">$</text><text x="2.004" y="14.696" class="f">has</text><text x="6.012" y="14.696" class="f">java</text><text x="11.022" y="14.696" class="f">perl6</text><text x="17.034" y="14.696" class="f">r</text></svg><svg x="3120"><use xlink:href="#a"/><use xlink:href="#7" y="2.171"/><use xlink:href="#8" y="4.342"/><use xlink:href="#9" y="6.513"/><use xlink:href="#10" y="8.684"/><text y="14.696" class="f">$</text><text x="2.004" y="14.696" class="f">has</text><text x="6.012" y="14.696" class="f">java</text><text x="11.022" y="14.696" class="f">perl6</text><text x="17.034" y="14.696" class="f">ru</text></svg><svg x="3200"><use xlink:href="#a"/><use xlink:href="#7" y="2.171"/><use xlink:href="#8" y="4.342"/><use xlink:href="#9" y="6.513"/><use xlink:href="#10" y="8.684"/><text y="14.696" class="f">$</text><text x="2.004" y="14.696" class="f">has</text><text x="6.012" y="14.696" class="f">java</text><text x="11.022" y="14.696" class="f">perl6</text><text x="17.034" y="14.696" class="f">rub</text></svg><svg x="3280"><use xlink:href="#a"/><use xlink:href="#7" y="2.171"/><use xlink:href="#8" y="4.342"/><use xlink:href="#9" y="6.513"/><use xlink:href="#10" y="8.684"/><use xlink:href="#13" y="13.026"/></svg><svg x="3360"><use xlink:href="#a"/><use xlink:href="#7" y="2.171"/><use xlink:href="#8" y="4.342"/><use xlink:href="#9" y="6.513"/><use xlink:href="#10" y="8.684"/><use xlink:href="#13" y="13.026"/></svg><svg x="3440"><use xlink:href="#a"/><use xlink:href="#7" y="2.171"/><use xlink:href="#8" y="4.342"/><use xlink:href="#9" y="6.513"/><use xlink:href="#10" y="8.684"/><text y="14.696" class="f">$</text><text x="2.004" y="14.696" class="f">has</text><text x="6.012" y="14.696" class="f">java</text><text x="11.022" y="14.696" class="f">perl6</text><text x="17.034" y="14.696" class="f">ruby</text><text x="22.044" y="14.696" class="f">g</text></svg><svg x="3520"><use xlink:href="#a"/><use xlink:href="#7" y="2.171"/><use xlink:href="#8" y="4.342"/><use xlink:href="#9" y="6.513"/><use xlink:href="#10" y="8.684"/><use xlink:href="#14" y="13.026"/></svg><svg x="3600"><use xlink:href="#a"/><use xlink:href="#7" y="2.171"/><use xlink:href="#8" y="4.342"/><use xlink:href="#9" y="6.513"/><use xlink:href="#10" y="8.684"/><use xlink:href="#14" y="13.026"/></svg><svg x="3680"><use xlink:href="#a"/><use xlink:href="#7" y="2.171"/><use xlink:href="#8" y="4.342"/><use xlink:href="#9" y="6.513"/><use xlink:href="#10" y="8.684"/><use xlink:href="#14" y="13.026"/><use xlink:href="#15" y="15.197"/></svg><svg x="3760"><use xlink:href="#a"/><use xlink:href="#7" y="2.171"/><use xlink:href="#8" y="4.342"/><use xlink:href="#9" y="6.513"/><use xlink:href="#10" y="8.684"/><use xlink:href="#14" y="13.026"/><use xlink:href="#15" y="15.197"/><use xlink:href="#16" y="17.368"/></svg><svg x="3840"><use xlink:href="#a"/><use xlink:href="#7" y="2.171"/><use xlink:href="#8" y="4.342"/><use xlink:href="#9" y="6.513"/><use xlink:href="#10" y="8.684"/><use xlink:href="#14" y="13.026"/><use xlink:href="#15" y="15.197"/><use xlink:href="#16" y="17.368"/><use xlink:href="#17" y="19.539"/></svg><svg x="3920"><use xlink:href="#a"/><use xlink:href="#7" y="2.171"/><use xlink:href="#8" y="4.342"/><use xlink:href="#9" y="6.513"/><use xlink:href="#10" y="8.684"/><use xlink:href="#14" y="13.026"/><use xlink:href="#15" y="15.197"/><use xlink:href="#16" y="17.368"/><use xlink:href="#17" y="19.539"/><use xlink:href="#18" y="21.71"/></svg><svg x="4000"><use xlink:href="#a"/><use xlink:href="#7" y="2.171"/><use xlink:href="#8" y="4.342"/><use xlink:href="#9" y="6.513"/><use xlink:href="#10" y="8.684"/><use xlink:href="#14" y="13.026"/><use xlink:href="#15" y="15.197"/><use xlink:href="#16" y="17.368"/><use xlink:href="#17" y="19.539"/><use xlink:href="#18" y="21.71"/><use xlink:href="#1" y="26.052"/></svg><svg x="4080"><use xlink:href="#a"/><use xlink:href="#7" y="2.171"/><use xlink:href="#8" y="4.342"/><use xlink:href="#9" y="6.513"/><use xlink:href="#10" y="8.684"/><use xlink:href="#14" y="13.026"/><use xlink:href="#15" y="15.197"/><use xlink:href="#16" y="17.368"/><use xlink:href="#17" y="19.539"/><use xlink:href="#18" y="21.71"/><text y="27.722" class="f">$</text><text x="2.004" y="27.722" class="f">curl</text></svg><svg x="4160"><use xlink:href="#a"/><use xlink:href="#7" y="2.171"/><use xlink:href="#8" y="4.342"/><use xlink:href="#9" y="6.513"/><use xlink:href="#10" y="8.684"/><use xlink:href="#14" y="13.026"/><use xlink:href="#15" y="15.197"/><use xlink:href="#16" y="17.368"/><use xlink:href="#17" y="19.539"/><use xlink:href="#18" y="21.71"/><use xlink:href="#19" y="26.052"/></svg><svg x="4240"><use xlink:href="#a"/><use xlink:href="#7" y="2.171"/><use xlink:href="#8" y="4.342"/><use xlink:href="#9" y="6.513"/><use xlink:href="#10" y="8.684"/><use xlink:href="#14" y="13.026"/><use xlink:href="#15" y="15.197"/><use xlink:href="#16" y="17.368"/><use xlink:href="#17" y="19.539"/><use xlink:href="#18" y="21.71"/><use xlink:href="#19" y="26.052"/></svg><svg x="4320"><use xlink:href="#a"/><use xlink:href="#7" y="2.171"/><use xlink:href="#8" y="4.342"/><use xlink:href="#9" y="6.513"/><use xlink:href="#10" y="8.684"/><use xlink:href="#14" y="13.026"/><use xlink:href="#15" y="15.197"/><use xlink:href="#16" y="17.368"/><use xlink:href="#17" y="19.539"/><use xlink:href="#18" y="21.71"/><text y="27.722" class="f">$</text><text x="2.004" y="27.722" class="f">curl</text><text x="7.014" y="27.722" class="f">-sL</text><text x="11.022" y="27.722" class="f">https://git.io/_has</text><text x="31.062" y="27.722" class="f">|</text><text x="33.066" y="27.722" class="f">bash</text><text x="38.076" y="27.722" class="f">-s</text><text x="41.082" y="27.722" class="f">b</text></svg><svg x="4400"><use xlink:href="#a"/><use xlink:href="#7" y="2.171"/><use xlink:href="#8" y="4.342"/><use xlink:href="#9" y="6.513"/><use xlink:href="#10" y="8.684"/><use xlink:href="#14" y="13.026"/><use xlink:href="#15" y="15.197"/><use xlink:href="#16" y="17.368"/><use xlink:href="#17" y="19.539"/><use xlink:href="#18" y="21.71"/><text y="27.722" class="f">$</text><text x="2.004" y="27.722" class="f">curl</text><text x="7.014" y="27.722" class="f">-sL</text><text x="11.022" y="27.722" class="f">https://git.io/_has</text><text x="31.062" y="27.722" class="f">|</text><text x="33.066" y="27.722" class="f">bash</text><text x="38.076" y="27.722" class="f">-s</text><text x="41.082" y="27.722" class="f">br</text></svg><svg x="4480"><use xlink:href="#a"/><use xlink:href="#7" y="2.171"/><use xlink:href="#8" y="4.342"/><use xlink:href="#9" y="6.513"/><use xlink:href="#10" y="8.684"/><use xlink:href="#14" y="13.026"/><use xlink:href="#15" y="15.197"/><use xlink:href="#16" y="17.368"/><use xlink:href="#17" y="19.539"/><use xlink:href="#18" y="21.71"/><text y="27.722" class="f">$</text><text x="2.004" y="27.722" class="f">curl</text><text x="7.014" y="27.722" class="f">-sL</text><text x="11.022" y="27.722" class="f">https://git.io/_has</text><text x="31.062" y="27.722" class="f">|</text><text x="33.066" y="27.722" class="f">bash</text><text x="38.076" y="27.722" class="f">-s</text><text x="41.082" y="27.722" class="f">bre</text></svg><svg x="4560"><use xlink:href="#a"/><use xlink:href="#7" y="2.171"/><use xlink:href="#8" y="4.342"/><use xlink:href="#9" y="6.513"/><use xlink:href="#10" y="8.684"/><use xlink:href="#14" y="13.026"/><use xlink:href="#15" y="15.197"/><use xlink:href="#16" y="17.368"/><use xlink:href="#17" y="19.539"/><use xlink:href="#18" y="21.71"/><use xlink:href="#20" y="26.052"/></svg><svg x="4640"><use xlink:href="#a"/><use xlink:href="#7" y="2.171"/><use xlink:href="#8" y="4.342"/><use xlink:href="#9" y="6.513"/><use xlink:href="#10" y="8.684"/><use xlink:href="#14" y="13.026"/><use xlink:href="#15" y="15.197"/><use xlink:href="#16" y="17.368"/><use xlink:href="#17" y="19.539"/><use xlink:href="#18" y="21.71"/><use xlink:href="#20" y="26.052"/></svg><svg x="4720"><use xlink:href="#a"/><use xlink:href="#7" y="2.171"/><use xlink:href="#8" y="4.342"/><use xlink:href="#9" y="6.513"/><use xlink:href="#10" y="8.684"/><use xlink:href="#14" y="13.026"/><use xlink:href="#15" y="15.197"/><use xlink:href="#16" y="17.368"/><use xlink:href="#17" y="19.539"/><use xlink:href="#18" y="21.71"/><text y="27.722" class="f">$</text><text x="2.004" y="27.722" class="f">curl</text><text x="7.014" y="27.722" class="f">-sL</text><text x="11.022" y="27.722" class="f">https://git.io/_has</text><text x="31.062" y="27.722" class="f">|</text><text x="33.066" y="27.722" class="f">bash</text><text x="38.076" y="27.722" class="f">-s</text><text x="41.082" y="27.722" class="f">brew</text><text x="46.092" y="27.722" class="f">v</text></svg><svg x="4800"><use xlink:href="#a"/><use xlink:href="#7" y="2.171"/><use xlink:href="#8" y="4.342"/><use xlink:href="#9" y="6.513"/><use xlink:href="#10" y="8.684"/><use xlink:href="#14" y="13.026"/><use xlink:href="#15" y="15.197"/><use xlink:href="#16" y="17.368"/><use xlink:href="#17" y="19.539"/><use xlink:href="#18" y="21.71"/><text y="27.722" class="f">$</text><text x="2.004" y="27.722" class="f">curl</text><text x="7.014" y="27.722" class="f">-sL</text><text x="11.022" y="27.722" class="f">https://git.io/_has</text><text x="31.062" y="27.722" class="f">|</text><text x="33.066" y="27.722" class="f">bash</text><text x="38.076" y="27.722" class="f">-s</text><text x="41.082" y="27.722" class="f">brew</text><text x="46.092" y="27.722" class="f">vi</text></svg><svg x="4880"><use xlink:href="#a"/><use xlink:href="#7" y="2.171"/><use xlink:href="#8" y="4.342"/><use xlink:href="#9" y="6.513"/><use xlink:href="#10" y="8.684"/><use xlink:href="#14" y="13.026"/><use xlink:href="#15" y="15.197"/><use xlink:href="#16" y="17.368"/><use xlink:href="#17" y="19.539"/><use xlink:href="#18" y="21.71"/><use xlink:href="#21" y="26.052"/></svg><svg x="4960"><use xlink:href="#a"/><use xlink:href="#7" y="2.171"/><use xlink:href="#8" y="4.342"/><use xlink:href="#9" y="6.513"/><use xlink:href="#10" y="8.684"/><use xlink:href="#14" y="13.026"/><use xlink:href="#15" y="15.197"/><use xlink:href="#16" y="17.368"/><use xlink:href="#17" y="19.539"/><use xlink:href="#18" y="21.71"/><use xlink:href="#21" y="26.052"/></svg><svg x="5040"><use xlink:href="#a"/><use xlink:href="#7" y="2.171"/><use xlink:href="#8" y="4.342"/><use xlink:href="#9" y="6.513"/><use xlink:href="#10" y="8.684"/><use xlink:href="#14" y="13.026"/><use xlink:href="#15" y="15.197"/><use xlink:href="#16" y="17.368"/><use xlink:href="#17" y="19.539"/><use xlink:href="#18" y="21.71"/><text y="27.722" class="f">$</text><text x="2.004" y="27.722" class="f">curl</text><text x="7.014" y="27.722" class="f">-sL</text><text x="11.022" y="27.722" class="f">https://git.io/_has</text><text x="31.062" y="27.722" class="f">|</text><text x="33.066" y="27.722" class="f">bash</text><text x="38.076" y="27.722" class="f">-s</text><text x="41.082" y="27.722" class="f">brew</text><text x="46.092" y="27.722" class="f">vim</text><text x="50.1" y="27.722" class="f">e</text></svg><svg x="5120"><use xlink:href="#a"/><use xlink:href="#7" y="2.171"/><use xlink:href="#8" y="4.342"/><use xlink:href="#9" y="6.513"/><use xlink:href="#10" y="8.684"/><use xlink:href="#14" y="13.026"/><use xlink:href="#15" y="15.197"/><use xlink:href="#16" y="17.368"/><use xlink:href="#17" y="19.539"/><use xlink:href="#18" y="21.71"/><text y="27.722" class="f">$</text><text x="2.004" y="27.722" class="f">curl</text><text x="7.014" y="27.722" class="f">-sL</text><text x="11.022" y="27.722" class="f">https://git.io/_has</text><text x="31.062" y="27.722" class="f">|</text><text x="33.066" y="27.722" class="f">bash</text><text x="38.076" y="27.722" class="f">-s</text><text x="41.082" y="27.722" class="f">brew</text><text x="46.092" y="27.722" class="f">vim</text><text x="50.1" y="27.722" class="f">em</text></svg><svg x="5200"><use xlink:href="#a"/><use xlink:href="#7" y="2.171"/><use xlink:href="#8" y="4.342"/><use xlink:href="#9" y="6.513"/><use xlink:href="#10" y="8.684"/><use xlink:href="#14" y="13.026"/><use xlink:href="#15" y="15.197"/><use xlink:href="#16" y="17.368"/><use xlink:href="#17" y="19.539"/><use xlink:href="#18" y="21.71"/><text y="27.722" class="f">$</text><text x="2.004" y="27.722" class="f">curl</text><text x="7.014" y="27.722" class="f">-sL</text><text x="11.022" y="27.722" class="f">https://git.io/_has</text><text x="31.062" y="27.722" class="f">|</text><text x="33.066" y="27.722" class="f">bash</text><text x="38.076" y="27.722" class="f">-s</text><text x="41.082" y="27.722" class="f">brew</text><text x="46.092" y="27.722" class="f">vim</text><text x="50.1" y="27.722" class="f">ema</text></svg><svg x="5280"><use xlink:href="#a"/><use xlink:href="#7" y="2.171"/><use xlink:href="#8" y="4.342"/><use xlink:href="#9" y="6.513"/><use xlink:href="#10" y="8.684"/><use xlink:href="#14" y="13.026"/><use xlink:href="#15" y="15.197"/><use xlink:href="#16" y="17.368"/><use xlink:href="#17" y="19.539"/><use xlink:href="#18" y="21.71"/><text y="27.722" class="f">$</text><text x="2.004" y="27.722" class="f">curl</text><text x="7.014" y="27.722" class="f">-sL</text><text x="11.022" y="27.722" class="f">https://git.io/_has</text><text x="31.062" y="27.722" class="f">|</text><text x="33.066" y="27.722" class="f">bash</text><text x="38.076" y="27.722" class="f">-s</text><text x="41.082" y="27.722" class="f">brew</text><text x="46.092" y="27.722" class="f">vim</text><text x="50.1" y="27.722" class="f">emac</text></svg><svg x="5360"><use xlink:href="#a"/><use xlink:href="#7" y="2.171"/><use xlink:href="#8" y="4.342"/><use xlink:href="#9" y="6.513"/><use xlink:href="#10" y="8.684"/><use xlink:href="#14" y="13.026"/><use xlink:href="#15" y="15.197"/><use xlink:href="#16" y="17.368"/><use xlink:href="#17" y="19.539"/><use xlink:href="#18" y="21.71"/><use xlink:href="#22" y="26.052"/></svg><svg x="5440"><use xlink:href="#a"/><use xlink:href="#7" y="2.171"/><use xlink:href="#8" y="4.342"/><use xlink:href="#9" y="6.513"/><use xlink:href="#10" y="8.684"/><use xlink:href="#14" y="13.026"/><use xlink:href="#15" y="15.197"/><use xlink:href="#16" y="17.368"/><use xlink:href="#17" y="19.539"/><use xlink:href="#18" y="21.71"/><use xlink:href="#22" y="26.052"/></svg><svg x="5520"><use xlink:href="#a"/><use xlink:href="#7" y="2.171"/><use xlink:href="#8" y="4.342"/><use xlink:href="#9" y="6.513"/><use xlink:href="#10" y="8.684"/><use xlink:href="#14" y="13.026"/><use xlink:href="#15" y="15.197"/><use xlink:href="#16" y="17.368"/><use xlink:href="#17" y="19.539"/><use xlink:href="#18" y="21.71"/><use xlink:href="#22" y="26.052"/><use xlink:href="#23" y="28.223"/></svg><svg x="5600"><use xlink:href="#a"/><use xlink:href="#7" y="2.171"/><use xlink:href="#8" y="4.342"/><use xlink:href="#9" y="6.513"/><use xlink:href="#10" y="8.684"/><use xlink:href="#14" y="13.026"/><use xlink:href="#15" y="15.197"/><use xlink:href="#16" y="17.368"/><use xlink:href="#17" y="19.539"/><use xlink:href="#18" y="21.71"/><use xlink:href="#22" y="26.052"/><use xlink:href="#23" y="28.223"/><use xlink:href="#24" y="30.394"/></svg><svg x="5680"><use xlink:href="#a"/><use xlink:href="#7" y="2.171"/><use xlink:href="#8" y="4.342"/><use xlink:href="#9" y="6.513"/><use xlink:href="#10" y="8.684"/><use xlink:href="#14" y="13.026"/><use xlink:href="#15" y="15.197"/><use xlink:href="#16" y="17.368"/><use xlink:href="#17" y="19.539"/><use xlink:href="#18" y="21.71"/><use xlink:href="#22" y="26.052"/><use xlink:href="#23" y="28.223"/><use xlink:href="#24" y="30.394"/><use xlink:href="#25" y="32.565"/></svg><svg x="5760"><use xlink:href="#a"/><use xlink:href="#7" y="2.171"/><use xlink:href="#8" y="4.342"/><use xlink:href="#9" y="6.513"/><use xlink:href="#10" y="8.684"/><use xlink:href="#14" y="13.026"/><use xlink:href="#15" y="15.197"/><use xlink:href="#16" y="17.368"/><use xlink:href="#17" y="19.539"/><use xlink:href="#18" y="21.71"/><use xlink:href="#22" y="26.052"/><use xlink:href="#23" y="28.223"/><use xlink:href="#24" y="30.394"/><use xlink:href="#25" y="32.565"/><use xlink:href="#1" y="36.907"/></svg><svg x="5840"><use xlink:href="#a"/><use xlink:href="#7" y="2.171"/><use xlink:href="#8" y="4.342"/><use xlink:href="#9" y="6.513"/><use xlink:href="#10" y="8.684"/><use xlink:href="#14" y="13.026"/><use xlink:href="#15" y="15.197"/><use xlink:href="#16" y="17.368"/><use xlink:href="#17" y="19.539"/><use xlink:href="#18" y="21.71"/><use xlink:href="#22" y="26.052"/><use xlink:href="#23" y="28.223"/><use xlink:href="#24" y="30.394"/><use xlink:href="#25" y="32.565"/><use xlink:href="#1" y="36.907"/></svg></svg></g></g></svg></svg>