<svg xmlns="http://www.w3.org/2000/svg" xmlns:xlink="http://www.w3.org/1999/xlink" width="840" height="494.2"><rect width="840" height="494.2" rx="5" ry="5" class="a"/><svg y="0%" x="0%"><circle cx="20" cy="20" r="6" fill="#ff5f58"/><circle cx="40" cy="20" r="6" fill="#ffbd2e"/><circle cx="60" cy="20" r="6" fill="#18c132"/></svg><svg height="434.2" viewBox="0 0 80 43.42" width="800" x="15" xmlns="http://www.w3.org/2000/svg" xmlns:xlink="http://www.w3.org/1999/xlink" y="50"><style>@keyframes i{0%{transform:translateX(0)}.2%{transform:translateX(-160px)}7%{transform:translateX(-240px)}7.5%{transform:translateX(-320px)}7.9%{transform:translateX(-400px)}8.8%{transform:translateX(-480px)}10%{transform:translateX(-560px)}11%{transform:translateX(-640px)}11.4%{transform:translateX(-720px)}11.9%{transform:translateX(-800px)}13%{transform:translateX(-880px)}15.4%{transform:translateX(-960px)}16.2%{transform:translateX(-1040px)}16.8%{transform:translateX(-1120px)}17.8%{transform:translateX(-1200px)}19%{transform:translateX(-1280px)}20.4%{transform:translateX(-1360px)}21.2%{transform:translateX(-1440px)}23.7%{transform:translateX(-1520px)}23.8%{transform:translateX(-1600px)}23.9%{transform:translateX(-1680px)}27%{transform:translateX(-1840px)}33.8%{transform:translateX(-1920px)}34.2%{transform:translateX(-2000px)}34.6%{transform:translateX(-2080px)}35.6%{transform:translateX(-2160px)}42.4%{transform:translateX(-2240px)}43.1%{transform:translateX(-2320px)}43.9%{transform:translateX(-2400px)}44.6%{transform:translateX(-2480px)}50.9%{transform:translateX(-2560px)}52.4%{transform:translateX(-2640px)}53%{transform:translateX(-2720px)}53.6%{transform:translateX(-2800px)}54.7%{transform:translateX(-2880px)}55.7%{transform:translateX(-2960px)}57.7%{transform:translateX(-3040px)}59.5%{transform:translateX(-3120px)}60.9%{transform:translateX(-3200px)}61.3%{transform:translateX(-3280px)}62.4%{transform:translateX(-3360px)}62.9%{transform:translateX(-3440px)}64.7%{transform:translateX(-3520px)}66.1%{transform:translateX(-3600px)}66.2%{transform:translateX(-3680px)}66.3%{transform:translateX(-3840px)}73.1%{transform:translateX(-4160px)}79.9%{transform:translateX(-4240px)}86.7%{transform:translateX(-4320px)}86.8%{transform:translateX(-4400px)}89.8%{transform:translateX(-4560px)}96.6%{transform:translateX(-4640px)}97.6%{transform:translateX(-4720px)}98.4%{transform:translateX(-4800px)}99.3%{transform:translateX(-4880px)}to{transform:translateX(-4960px)}}.a{fill:#282d35}.f{fill:#b9c0cb}</style><g font-size="1.67" font-family="Monaco,Consolas,Menlo,'Bitstream Vera Sans Mono','Powerline Symbols',monospace"><defs><symbol id="1"><text y="1.67" class="f">$</text></symbol><symbol id="2"><text y="1.67" class="f">$</text><text x="2.004" y="1.67" class="f">h</text></symbol><symbol id="3"><text y="1.67" class="f">$</text><text x="2.004" y="1.67" class="f">ha</text></symbol><symbol id="4"><text y="1.67" class="f">$</text><text x="2.004" y="1.67" class="f">has</text></symbol><symbol id="5"><text y="1.67" class="f">$</text><text x="2.004" y="1.67" class="f">has</text><text x="6.012" y="1.67" class="f">node</text></symbol><symbol id="6"><text y="1.67" class="f">$</text><text x="2.004" y="1.67" class="f">has</text><text x="6.012" y="1.67" class="f">node</text><text x="11.022" y="1.67" class="f">git</text></symbol><symbol id="7"><text y="1.67" class="f">$</text><text x="2.004" y="1.67" class="f">has</text><text x="6.012" y="1.67" class="f">node</text><text x="11.022" y="1.67" class="f">git</text><text x="15.03" y="1.67" class="f">npm</text></symbol><symbol id="8"><text y="1.67" class="f">✔</text><text x="2.004" y="1.67" class="f">node</text><text x="7.014" y="1.67" class="f">8.2.1</text></symbol><symbol id="9"><text y="1.67" class="f">✔</text><text x="2.004" y="1.67" class="f">git</text><text x="6.012" y="1.67" class="f">2.14.1</text></symbol><symbol id="10"><text y="1.67" class="f">✔</text><text x="2.004" y="1.67" class="f">npm</text><text x="6.012" y="1.67" class="f">5.3.0</text></symbol><symbol id="11"><text y="1.67" class="f">$</text><text x="2.004" y="1.67" class="f">has</text><text x="6.012" y="1.67" class="f">java</text></symbol><symbol id="12"><text y="1.67" class="f">$</text><text x="2.004" y="1.67" class="f">has</text><text x="6.012" y="1.67" class="f">java</text><text x="11.022" y="1.67" class="f">ruby</text></symbol><symbol id="13"><text y="1.67" class="f">$</text><text x="2.004" y="1.67" class="f">has</text><text x="6.012" y="1.67" class="f">java</text><text x="11.022" y="1.67" class="f">ruby</text><text x="16.032" y="1.67" class="f">python</text></symbol><symbol id="14"><text y="1.67" class="f">✔</text><text x="2.004" y="1.67" class="f">java</text><text x="7.014" y="1.67" class="f">1.8.0</text></symbol><symbol id="15"><text y="1.67" class="f">✔</text><text x="2.004" y="1.67" class="f">ruby</text><text x="7.014" y="1.67" class="f">2.3.1</text></symbol><symbol id="16"><text y="1.67" class="f">✔</text><text x="2.004" y="1.67" class="f">python</text><text x="9.018" y="1.67" class="f">2.7.12</text></symbol><symbol id="17"><text y="1.67" class="f">$</text><text x="2.004" y="1.67" class="f">curl</text><text x="7.014" y="1.67" class="f">-sL</text><text x="11.022" y="1.67" class="f">https://git.io/_has</text><text x="31.062" y="1.67" class="f">|</text><text x="33.066" y="1.67" class="f">bash</text><text x="38.076" y="1.67" class="f">-s</text><text x="41.082" y="1.67" class="f">git</text><text x="45.09" y="1.67" class="f">node</text><text x="50.1" y="1.67" class="f">npm</text></symbol><symbol id="18"><text y="1.67" class="f">$</text><text x="2.004" y="1.67" class="f">exit</text></symbol><symbol id="a"><path fill="transparent" d="M0 0h80v21H0z"/></symbol><symbol id="b"><path fill="#6f7683" d="M0 0h1.102v2.171H0z"/></symbol></defs><path class="a" d="M0 0h80v43.42H0z"/><g style="animation-duration:14.722276s;animation-iteration-count:infinite;animation-name:i;animation-timing-function:steps(1,end)"><svg width="5040"><svg><use xlink:href="#a"/><use xlink:href="#b" x="-.004"/></svg><svg x="80"><use xlink:href="#a"/><use xlink:href="#b" x="-.004"/></svg><svg x="160"><use xlink:href="#a"/><use xlink:href="#b" x="1.996" y="2.146"/><use xlink:href="#1" y="2.171"/></svg><svg x="240"><use xlink:href="#a"/><use xlink:href="#b" x="2.996" y="2.146"/><use xlink:href="#2" y="2.171"/></svg><svg x="320"><use xlink:href="#a"/><use xlink:href="#b" x="3.996" y="2.146"/><use xlink:href="#3" y="2.171"/></svg><svg x="400"><use xlink:href="#a"/><use xlink:href="#b" x="4.996" y="2.146"/><use xlink:href="#4" y="2.171"/></svg><svg x="480"><use xlink:href="#a"/><use xlink:href="#b" x="5.996" y="2.146"/><use xlink:href="#4" y="2.171"/></svg><svg x="560"><use xlink:href="#a"/><use xlink:href="#b" x="6.996" y="2.146"/><text y="3.841" class="f">$</text><text x="2.004" y="3.841" class="f">has</text><text x="6.012" y="3.841" class="f">n</text></svg><svg x="640"><use xlink:href="#a"/><use xlink:href="#b" x="7.996" y="2.146"/><text y="3.841" class="f">$</text><text x="2.004" y="3.841" class="f">has</text><text x="6.012" y="3.841" class="f">no</text></svg><svg x="720"><use xlink:href="#a"/><use xlink:href="#b" x="8.996" y="2.146"/><text y="3.841" class="f">$</text><text x="2.004" y="3.841" class="f">has</text><text x="6.012" y="3.841" class="f">nod</text></svg><svg x="800"><use xlink:href="#a"/><use xlink:href="#b" x="9.996" y="2.146"/><use xlink:href="#5" y="2.171"/></svg><svg x="880"><use xlink:href="#a"/><use xlink:href="#b" x="10.996" y="2.146"/><use xlink:href="#5" y="2.171"/></svg><svg x="960"><use xlink:href="#a"/><use xlink:href="#b" x="11.996" y="2.146"/><text y="3.841" class="f">$</text><text x="2.004" y="3.841" class="f">has</text><text x="6.012" y="3.841" class="f">node</text><text x="11.022" y="3.841" class="f">g</text></svg><svg x="1040"><use xlink:href="#a"/><use xlink:href="#b" x="12.996" y="2.146"/><text y="3.841" class="f">$</text><text x="2.004" y="3.841" class="f">has</text><text x="6.012" y="3.841" class="f">node</text><text x="11.022" y="3.841" class="f">gi</text></svg><svg x="1120"><use xlink:href="#a"/><use xlink:href="#b" x="13.996" y="2.146"/><use xlink:href="#6" y="2.171"/></svg><svg x="1200"><use xlink:href="#a"/><use xlink:href="#b" x="14.996" y="2.146"/><use xlink:href="#6" y="2.171"/></svg><svg x="1280"><use xlink:href="#a"/><use xlink:href="#b" x="15.996" y="2.146"/><text y="3.841" class="f">$</text><text x="2.004" y="3.841" class="f">has</text><text x="6.012" y="3.841" class="f">node</text><text x="11.022" y="3.841" class="f">git</text><text x="15.03" y="3.841" class="f">n</text></svg><svg x="1360"><use xlink:href="#a"/><use xlink:href="#b" x="16.996" y="2.146"/><text y="3.841" class="f">$</text><text x="2.004" y="3.841" class="f">has</text><text x="6.012" y="3.841" class="f">node</text><text x="11.022" y="3.841" class="f">git</text><text x="15.03" y="3.841" class="f">np</text></svg><svg x="1440"><use xlink:href="#a"/><use xlink:href="#b" x="17.996" y="2.146"/><use xlink:href="#7" y="2.171"/></svg><svg x="1520"><use xlink:href="#a"/><use xlink:href="#b" x="-.004" y="4.317"/><use xlink:href="#7" y="2.171"/></svg><svg x="1600"><use xlink:href="#a"/><use xlink:href="#b" x="-.004" y="6.488"/><use xlink:href="#7" y="2.171"/><use xlink:href="#8" y="4.342"/></svg><svg x="1680"><use xlink:href="#a"/><use xlink:href="#b" x="-.004" y="8.659"/><use xlink:href="#7" y="2.171"/><use xlink:href="#8" y="4.342"/><use xlink:href="#9" y="6.513"/></svg><svg x="1760"><use xlink:href="#a"/><use xlink:href="#b" x="-.004" y="10.83"/><use xlink:href="#7" y="2.171"/><use xlink:href="#8" y="4.342"/><use xlink:href="#9" y="6.513"/><use xlink:href="#10" y="8.684"/></svg><svg x="1840"><use xlink:href="#a"/><use xlink:href="#b" x="1.996" y="13.001"/><use xlink:href="#7" y="2.171"/><use xlink:href="#8" y="4.342"/><use xlink:href="#9" y="6.513"/><use xlink:href="#10" y="8.684"/><use xlink:href="#1" y="13.026"/></svg><svg x="1920"><use xlink:href="#a"/><use xlink:href="#b" x="2.996" y="13.001"/><use xlink:href="#7" y="2.171"/><use xlink:href="#8" y="4.342"/><use xlink:href="#9" y="6.513"/><use xlink:href="#10" y="8.684"/><use xlink:href="#2" y="13.026"/></svg><svg x="2000"><use xlink:href="#a"/><use xlink:href="#b" x="3.996" y="13.001"/><use xlink:href="#7" y="2.171"/><use xlink:href="#8" y="4.342"/><use xlink:href="#9" y="6.513"/><use xlink:href="#10" y="8.684"/><use xlink:href="#3" y="13.026"/></svg><svg x="2080"><use xlink:href="#a"/><use xlink:href="#b" x="4.996" y="13.001"/><use xlink:href="#7" y="2.171"/><use xlink:href="#8" y="4.342"/><use xlink:href="#9" y="6.513"/><use xlink:href="#10" y="8.684"/><use xlink:href="#4" y="13.026"/></svg><svg x="2160"><use xlink:href="#a"/><use xlink:href="#b" x="5.996" y="13.001"/><use xlink:href="#7" y="2.171"/><use xlink:href="#8" y="4.342"/><use xlink:href="#9" y="6.513"/><use xlink:href="#10" y="8.684"/><use xlink:href="#4" y="13.026"/></svg><svg x="2240"><use xlink:href="#a"/><use xlink:href="#b" x="6.996" y="13.001"/><use xlink:href="#7" y="2.171"/><use xlink:href="#8" y="4.342"/><use xlink:href="#9" y="6.513"/><use xlink:href="#10" y="8.684"/><text y="14.696" class="f">$</text><text x="2.004" y="14.696" class="f">has</text><text x="6.012" y="14.696" class="f">j</text></svg><svg x="2320"><use xlink:href="#a"/><use xlink:href="#b" x="7.996" y="13.001"/><use xlink:href="#7" y="2.171"/><use xlink:href="#8" y="4.342"/><use xlink:href="#9" y="6.513"/><use xlink:href="#10" y="8.684"/><text y="14.696" class="f">$</text><text x="2.004" y="14.696" class="f">has</text><text x="6.012" y="14.696" class="f">ja</text></svg><svg x="2400"><use xlink:href="#a"/><use xlink:href="#b" x="8.996" y="13.001"/><use xlink:href="#7" y="2.171"/><use xlink:href="#8" y="4.342"/><use xlink:href="#9" y="6.513"/><use xlink:href="#10" y="8.684"/><text y="14.696" class="f">$</text><text x="2.004" y="14.696" class="f">has</text><text x="6.012" y="14.696" class="f">jav</text></svg><svg x="2480"><use xlink:href="#a"/><use xlink:href="#b" x="9.996" y="13.001"/><use xlink:href="#7" y="2.171"/><use xlink:href="#8" y="4.342"/><use xlink:href="#9" y="6.513"/><use xlink:href="#10" y="8.684"/><use xlink:href="#11" y="13.026"/></svg><svg x="2560"><use xlink:href="#a"/><use xlink:href="#b" x="10.996" y="13.001"/><use xlink:href="#7" y="2.171"/><use xlink:href="#8" y="4.342"/><use xlink:href="#9" y="6.513"/><use xlink:href="#10" y="8.684"/><use xlink:href="#11" y="13.026"/></svg><svg x="2640"><use xlink:href="#a"/><use xlink:href="#b" x="11.996" y="13.001"/><use xlink:href="#7" y="2.171"/><use xlink:href="#8" y="4.342"/><use xlink:href="#9" y="6.513"/><use xlink:href="#10" y="8.684"/><text y="14.696" class="f">$</text><text x="2.004" y="14.696" class="f">has</text><text x="6.012" y="14.696" class="f">java</text><text x="11.022" y="14.696" class="f">r</text></svg><svg x="2720"><use xlink:href="#a"/><use xlink:href="#b" x="12.996" y="13.001"/><use xlink:href="#7" y="2.171"/><use xlink:href="#8" y="4.342"/><use xlink:href="#9" y="6.513"/><use xlink:href="#10" y="8.684"/><text y="14.696" class="f">$</text><text x="2.004" y="14.696" class="f">has</text><text x="6.012" y="14.696" class="f">java</text><text x="11.022" y="14.696" class="f">ru</text></svg><svg x="2800"><use xlink:href="#a"/><use xlink:href="#b" x="13.996" y="13.001"/><use xlink:href="#7" y="2.171"/><use xlink:href="#8" y="4.342"/><use xlink:href="#9" y="6.513"/><use xlink:href="#10" y="8.684"/><text y="14.696" class="f">$</text><text x="2.004" y="14.696" class="f">has</text><text x="6.012" y="14.696" class="f">java</text><text x="11.022" y="14.696" class="f">rub</text></svg><svg x="2880"><use xlink:href="#a"/><use xlink:href="#b" x="14.996" y="13.001"/><use xlink:href="#7" y="2.171"/><use xlink:href="#8" y="4.342"/><use xlink:href="#9" y="6.513"/><use xlink:href="#10" y="8.684"/><use xlink:href="#12" y="13.026"/></svg><svg x="2960"><use xlink:href="#a"/><use xlink:href="#b" x="15.996" y="13.001"/><use xlink:href="#7" y="2.171"/><use xlink:href="#8" y="4.342"/><use xlink:href="#9" y="6.513"/><use xlink:href="#10" y="8.684"/><use xlink:href="#12" y="13.026"/></svg><svg x="3040"><use xlink:href="#a"/><use xlink:href="#b" x="16.996" y="13.001"/><use xlink:href="#7" y="2.171"/><use xlink:href="#8" y="4.342"/><use xlink:href="#9" y="6.513"/><use xlink:href="#10" y="8.684"/><text y="14.696" class="f">$</text><text x="2.004" y="14.696" class="f">has</text><text x="6.012" y="14.696" class="f">java</text><text x="11.022" y="14.696" class="f">ruby</text><text x="16.032" y="14.696" class="f">p</text></svg><svg x="3120"><use xlink:href="#a"/><use xlink:href="#b" x="17.996" y="13.001"/><use xlink:href="#7" y="2.171"/><use xlink:href="#8" y="4.342"/><use xlink:href="#9" y="6.513"/><use xlink:href="#10" y="8.684"/><text y="14.696" class="f">$</text><text x="2.004" y="14.696" class="f">has</text><text x="6.012" y="14.696" class="f">java</text><text x="11.022" y="14.696" class="f">ruby</text><text x="16.032" y="14.696" class="f">py</text></svg><svg x="3200"><use xlink:href="#a"/><use xlink:href="#b" x="18.996" y="13.001"/><use xlink:href="#7" y="2.171"/><use xlink:href="#8" y="4.342"/><use xlink:href="#9" y="6.513"/><use xlink:href="#10" y="8.684"/><text y="14.696" class="f">$</text><text x="2.004" y="14.696" class="f">has</text><text x="6.012" y="14.696" class="f">java</text><text x="11.022" y="14.696" class="f">ruby</text><text x="16.032" y="14.696" class="f">pyt</text></svg><svg x="3280"><use xlink:href="#a"/><use xlink:href="#b" x="19.996" y="13.001"/><use xlink:href="#7" y="2.171"/><use xlink:href="#8" y="4.342"/><use xlink:href="#9" y="6.513"/><use xlink:href="#10" y="8.684"/><text y="14.696" class="f">$</text><text x="2.004" y="14.696" class="f">has</text><text x="6.012" y="14.696" class="f">java</text><text x="11.022" y="14.696" class="f">ruby</text><text x="16.032" y="14.696" class="f">pyth</text></svg><svg x="3360"><use xlink:href="#a"/><use xlink:href="#b" x="20.996" y="13.001"/><use xlink:href="#7" y="2.171"/><use xlink:href="#8" y="4.342"/><use xlink:href="#9" y="6.513"/><use xlink:href="#10" y="8.684"/><text y="14.696" class="f">$</text><text x="2.004" y="14.696" class="f">has</text><text x="6.012" y="14.696" class="f">java</text><text x="11.022" y="14.696" class="f">ruby</text><text x="16.032" y="14.696" class="f">pytho</text></svg><svg x="3440"><use xlink:href="#a"/><use xlink:href="#b" x="21.996" y="13.001"/><use xlink:href="#7" y="2.171"/><use xlink:href="#8" y="4.342"/><use xlink:href="#9" y="6.513"/><use xlink:href="#10" y="8.684"/><use xlink:href="#13" y="13.026"/></svg><svg x="3520"><use xlink:href="#a"/><use xlink:href="#b" x="-.004" y="15.172"/><use xlink:href="#7" y="2.171"/><use xlink:href="#8" y="4.342"/><use xlink:href="#9" y="6.513"/><use xlink:href="#10" y="8.684"/><use xlink:href="#13" y="13.026"/></svg><svg x="3600"><use xlink:href="#a"/><use xlink:href="#b" x="-.004" y="17.343"/><use xlink:href="#7" y="2.171"/><use xlink:href="#8" y="4.342"/><use xlink:href="#9" y="6.513"/><use xlink:href="#10" y="8.684"/><use xlink:href="#13" y="13.026"/><use xlink:href="#14" y="15.197"/></svg><svg x="3680"><use xlink:href="#a"/><use xlink:href="#b" x="-.004" y="19.514"/><use xlink:href="#7" y="2.171"/><use xlink:href="#8" y="4.342"/><use xlink:href="#9" y="6.513"/><use xlink:href="#10" y="8.684"/><use xlink:href="#13" y="13.026"/><use xlink:href="#14" y="15.197"/><use xlink:href="#15" y="17.368"/></svg><svg x="3760"><use xlink:href="#a"/><use xlink:href="#b" x="-.004" y="21.685"/><use xlink:href="#7" y="2.171"/><use xlink:href="#8" y="4.342"/><use xlink:href="#9" y="6.513"/><use xlink:href="#10" y="8.684"/><use xlink:href="#13" y="13.026"/><use xlink:href="#14" y="15.197"/><use xlink:href="#15" y="17.368"/><use xlink:href="#16" y="19.539"/></svg><svg x="3840"><use xlink:href="#a"/><use xlink:href="#b" x="1.996" y="23.856"/><use xlink:href="#7" y="2.171"/><use xlink:href="#8" y="4.342"/><use xlink:href="#9" y="6.513"/><use xlink:href="#10" y="8.684"/><use xlink:href="#13" y="13.026"/><use xlink:href="#14" y="15.197"/><use xlink:href="#15" y="17.368"/><use xlink:href="#16" y="19.539"/><use xlink:href="#1" y="23.881"/></svg><svg x="3920"><use xlink:href="#a"/><use xlink:href="#b" x="11.996" y="23.856"/><use xlink:href="#7" y="2.171"/><use xlink:href="#8" y="4.342"/><use xlink:href="#9" y="6.513"/><use xlink:href="#10" y="8.684"/><use xlink:href="#13" y="13.026"/><use xlink:href="#14" y="15.197"/><use xlink:href="#15" y="17.368"/><use xlink:href="#16" y="19.539"/><text y="25.551" class="f">$</text><text x="2.004" y="25.551" class="f">curl</text><text x="7.014" y="25.551" class="f">-sL</text><text x="11.022" y="25.551" class="f">h</text></svg><svg x="4000"><use xlink:href="#a"/><use xlink:href="#b" x="19.996" y="23.856"/><use xlink:href="#7" y="2.171"/><use xlink:href="#8" y="4.342"/><use xlink:href="#9" y="6.513"/><use xlink:href="#10" y="8.684"/><use xlink:href="#13" y="13.026"/><use xlink:href="#14" y="15.197"/><use xlink:href="#15" y="17.368"/><use xlink:href="#16" y="19.539"/><text y="25.551" class="f">$</text><text x="2.004" y="25.551" class="f">curl</text><text x="7.014" y="25.551" class="f">-sL</text><text x="11.022" y="25.551" class="f">https://g</text></svg><svg x="4080"><use xlink:href="#a"/><use xlink:href="#b" x="23.996" y="23.856"/><use xlink:href="#7" y="2.171"/><use xlink:href="#8" y="4.342"/><use xlink:href="#9" y="6.513"/><use xlink:href="#10" y="8.684"/><use xlink:href="#13" y="13.026"/><use xlink:href="#14" y="15.197"/><use xlink:href="#15" y="17.368"/><use xlink:href="#16" y="19.539"/><text y="25.551" class="f">$</text><text x="2.004" y="25.551" class="f">curl</text><text x="7.014" y="25.551" class="f">-sL</text><text x="11.022" y="25.551" class="f">https://git.i</text></svg><svg x="4160"><use xlink:href="#a"/><use xlink:href="#b" x="52.996" y="23.856"/><use xlink:href="#7" y="2.171"/><use xlink:href="#8" y="4.342"/><use xlink:href="#9" y="6.513"/><use xlink:href="#10" y="8.684"/><use xlink:href="#13" y="13.026"/><use xlink:href="#14" y="15.197"/><use xlink:href="#15" y="17.368"/><use xlink:href="#16" y="19.539"/><use xlink:href="#17" y="23.881"/></svg><svg x="4240"><use xlink:href="#a"/><use xlink:href="#b" x="-.004" y="26.027"/><use xlink:href="#7" y="2.171"/><use xlink:href="#8" y="4.342"/><use xlink:href="#9" y="6.513"/><use xlink:href="#10" y="8.684"/><use xlink:href="#13" y="13.026"/><use xlink:href="#14" y="15.197"/><use xlink:href="#15" y="17.368"/><use xlink:href="#16" y="19.539"/><use xlink:href="#17" y="23.881"/></svg><svg x="4320"><use xlink:href="#a"/><use xlink:href="#b" x="-.004" y="28.198"/><use xlink:href="#7" y="2.171"/><use xlink:href="#8" y="4.342"/><use xlink:href="#9" y="6.513"/><use xlink:href="#10" y="8.684"/><use xlink:href="#13" y="13.026"/><use xlink:href="#14" y="15.197"/><use xlink:href="#15" y="17.368"/><use xlink:href="#16" y="19.539"/><use xlink:href="#17" y="23.881"/><use xlink:href="#9" y="26.052"/></svg><svg x="4400"><use xlink:href="#a"/><use xlink:href="#b" x="-.004" y="30.369"/><use xlink:href="#7" y="2.171"/><use xlink:href="#8" y="4.342"/><use xlink:href="#9" y="6.513"/><use xlink:href="#10" y="8.684"/><use xlink:href="#13" y="13.026"/><use xlink:href="#14" y="15.197"/><use xlink:href="#15" y="17.368"/><use xlink:href="#16" y="19.539"/><use xlink:href="#17" y="23.881"/><use xlink:href="#9" y="26.052"/><use xlink:href="#8" y="28.223"/></svg><svg x="4480"><use xlink:href="#a"/><use xlink:href="#b" x="-.004" y="32.54"/><use xlink:href="#7" y="2.171"/><use xlink:href="#8" y="4.342"/><use xlink:href="#9" y="6.513"/><use xlink:href="#10" y="8.684"/><use xlink:href="#13" y="13.026"/><use xlink:href="#14" y="15.197"/><use xlink:href="#15" y="17.368"/><use xlink:href="#16" y="19.539"/><use xlink:href="#17" y="23.881"/><use xlink:href="#9" y="26.052"/><use xlink:href="#8" y="28.223"/><use xlink:href="#10" y="30.394"/></svg><svg x="4560"><use xlink:href="#a"/><use xlink:href="#b" x="1.996" y="34.711"/><use xlink:href="#7" y="2.171"/><use xlink:href="#8" y="4.342"/><use xlink:href="#9" y="6.513"/><use xlink:href="#10" y="8.684"/><use xlink:href="#13" y="13.026"/><use xlink:href="#14" y="15.197"/><use xlink:href="#15" y="17.368"/><use xlink:href="#16" y="19.539"/><use xlink:href="#17" y="23.881"/><use xlink:href="#9" y="26.052"/><use xlink:href="#8" y="28.223"/><use xlink:href="#10" y="30.394"/><use xlink:href="#1" y="34.736"/></svg><svg x="4640"><use xlink:href="#a"/><use xlink:href="#b" x="2.996" y="34.711"/><use xlink:href="#7" y="2.171"/><use xlink:href="#8" y="4.342"/><use xlink:href="#9" y="6.513"/><use xlink:href="#10" y="8.684"/><use xlink:href="#13" y="13.026"/><use xlink:href="#14" y="15.197"/><use xlink:href="#15" y="17.368"/><use xlink:href="#16" y="19.539"/><use xlink:href="#17" y="23.881"/><use xlink:href="#9" y="26.052"/><use xlink:href="#8" y="28.223"/><use xlink:href="#10" y="30.394"/><text y="36.406" class="f">$</text><text x="2.004" y="36.406" class="f">e</text></svg><svg x="4720"><use xlink:href="#a"/><use xlink:href="#b" x="3.996" y="34.711"/><use xlink:href="#7" y="2.171"/><use xlink:href="#8" y="4.342"/><use xlink:href="#9" y="6.513"/><use xlink:href="#10" y="8.684"/><use xlink:href="#13" y="13.026"/><use xlink:href="#14" y="15.197"/><use xlink:href="#15" y="17.368"/><use xlink:href="#16" y="19.539"/><use xlink:href="#17" y="23.881"/><use xlink:href="#9" y="26.052"/><use xlink:href="#8" y="28.223"/><use xlink:href="#10" y="30.394"/><text y="36.406" class="f">$</text><text x="2.004" y="36.406" class="f">ex</text></svg><svg x="4800"><use xlink:href="#a"/><use xlink:href="#b" x="4.996" y="34.711"/><use xlink:href="#7" y="2.171"/><use xlink:href="#8" y="4.342"/><use xlink:href="#9" y="6.513"/><use xlink:href="#10" y="8.684"/><use xlink:href="#13" y="13.026"/><use xlink:href="#14" y="15.197"/><use xlink:href="#15" y="17.368"/><use xlink:href="#16" y="19.539"/><use xlink:href="#17" y="23.881"/><use xlink:href="#9" y="26.052"/><use xlink:href="#8" y="28.223"/><use xlink:href="#10" y="30.394"/><text y="36.406" class="f">$</text><text x="2.004" y="36.406" class="f">exi</text></svg><svg x="4880"><use xlink:href="#a"/><use xlink:href="#b" x="5.996" y="34.711"/><use xlink:href="#7" y="2.171"/><use xlink:href="#8" y="4.342"/><use xlink:href="#9" y="6.513"/><use xlink:href="#10" y="8.684"/><use xlink:href="#13" y="13.026"/><use xlink:href="#14" y="15.197"/><use xlink:href="#15" y="17.368"/><use xlink:href="#16" y="19.539"/><use xlink:href="#17" y="23.881"/><use xlink:href="#9" y="26.052"/><use xlink:href="#8" y="28.223"/><use xlink:href="#10" y="30.394"/><use xlink:href="#18" y="34.736"/></svg><svg x="4960"><use xlink:href="#a"/><use xlink:href="#b" x="-.004" y="36.882"/><use xlink:href="#7" y="2.171"/><use xlink:href="#8" y="4.342"/><use xlink:href="#9" y="6.513"/><use xlink:href="#10" y="8.684"/><use xlink:href="#13" y="13.026"/><use xlink:href="#14" y="15.197"/><use xlink:href="#15" y="17.368"/><use xlink:href="#16" y="19.539"/><use xlink:href="#17" y="23.881"/><use xlink:href="#9" y="26.052"/><use xlink:href="#8" y="28.223"/><use xlink:href="#10" y="30.394"/><use xlink:href="#18" y="34.736"/></svg></svg></g></g></svg></svg>